<svg version="1.1" id="Layer_1" xmlns="http://www.w3.org/2000/svg" xmlns:xlink="http://www.w3.org/1999/xlink" x="0px" y="0px"
	 width="100%" viewBox="0 0 369 421" enable-background="new 0 0 369 421" xml:space="preserve">
<path fill="#FEFEFE" opacity="1.000000" stroke="none" 
	d="
M207.000000,422.000000 
	C138.021667,422.000000 69.543343,422.000000 1.032508,422.000000 
	C1.032508,281.732758 1.032508,141.465485 1.032508,1.099107 
	C123.894936,1.099107 246.789978,1.099107 369.842529,1.099107 
	C369.842529,141.333191 369.842529,281.666565 369.842529,422.000000 
	C315.798859,422.000000 261.649445,422.000000 207.000000,422.000000 
M166.840942,236.728806 
	C166.916489,237.475967 166.992050,238.223114 166.963699,239.743973 
	C171.351456,246.682892 175.281128,253.979675 180.310577,260.417267 
	C183.028839,263.896576 186.802170,261.621918 189.127045,258.537933 
	C192.332474,254.285919 195.565964,250.007492 198.239059,245.420807 
	C199.683044,242.943161 200.684158,239.804062 200.697739,236.957733 
	C200.855240,203.959152 200.814545,170.959366 200.681183,137.960495 
	C200.675293,136.498428 199.275909,135.042007 198.525620,133.582947 
	C197.678970,135.120651 196.723083,136.611618 196.035995,138.217590 
	C195.734207,138.922989 195.977570,139.862686 195.977676,140.695999 
	C195.981186,170.528870 195.508698,200.373672 196.254700,230.187973 
	C196.506424,240.247894 191.313721,246.688721 186.018982,253.603241 
	C185.351044,254.475494 181.994888,254.741455 181.596375,254.144806 
	C177.272141,247.670563 171.224350,242.418869 171.363403,233.228165 
	C171.829834,202.402481 171.537964,171.565186 171.502686,140.732391 
	C171.500610,138.917450 171.391098,137.054962 170.949936,135.311157 
	C170.768433,134.593735 169.575821,134.132111 168.843124,133.554123 
	C168.251648,134.379379 167.660172,135.204636 166.895538,136.949219 
	C166.936020,165.629974 166.976517,194.310715 166.836151,223.782379 
	C166.895248,224.856964 166.954346,225.931549 166.877106,227.832977 
	C166.909409,229.226593 166.941696,230.620224 166.778458,232.793777 
	C166.841492,233.857559 166.904526,234.921326 166.840942,236.728806 
M115.943886,140.392120 
	C112.576035,147.447952 109.975952,155.019791 105.661545,161.439468 
	C99.085670,171.224091 101.248863,179.856995 106.875648,188.671326 
	C108.394005,191.049820 110.002014,193.400070 111.814507,195.556870 
	C120.599304,206.010498 133.837402,207.307053 143.238586,197.422531 
	C148.339157,192.059708 151.416962,184.721329 155.144409,178.125565 
	C157.072845,174.713165 156.426331,171.257828 154.644485,167.678741 
	C147.230698,152.787216 139.983734,137.810730 132.874924,122.771202 
	C131.716324,120.320061 131.266129,117.421471 131.015564,114.681503 
	C130.683167,111.046844 130.997589,107.355614 130.737442,103.709862 
	C130.675873,102.847054 129.432205,102.068596 128.732300,101.251328 
	C128.000839,102.010719 126.888840,102.658516 126.625862,103.555283 
	C126.216728,104.950508 126.208992,106.530312 126.337898,108.005074 
	C126.963074,115.157784 125.685379,121.821251 122.028587,128.095551 
	C119.855804,131.823624 118.168716,135.834763 115.943886,140.392120 
M248.342361,200.989517 
	C257.414886,195.127457 261.984802,186.155670 264.966705,176.264267 
	C265.606201,174.142868 265.385376,171.263290 264.450378,169.248245 
	C258.990692,157.481888 253.264725,145.837036 247.501312,134.214325 
	C242.981064,125.098579 238.336060,116.093544 240.016022,105.331741 
	C240.203323,104.131927 238.768585,102.678917 238.086060,101.343330 
	C237.325500,102.756073 236.171875,104.097443 235.899261,105.598785 
	C235.518570,107.695488 236.104172,109.967102 235.726852,112.065063 
	C234.949127,116.389603 234.489334,120.960922 232.694824,124.879364 
	C225.838913,139.849762 218.459854,154.579895 211.413223,169.464615 
	C210.624847,171.129929 209.919128,173.528351 210.529572,175.039673 
	C212.946381,181.023056 215.219849,187.250458 218.799042,192.539795 
	C226.433884,203.822571 237.052673,206.689758 248.342361,200.989517 
M227.690231,86.528343 
	C226.301468,85.633232 225.003693,84.226395 223.503204,83.959549 
	C221.081406,83.528831 218.526108,83.851051 216.027206,83.851295 
	C206.252167,83.852272 196.477112,83.851700 186.487732,83.851700 
	C186.487732,137.940430 186.487732,191.409607 186.487732,245.343414 
	C190.819016,241.452469 191.641571,236.949707 191.629623,231.942795 
	C191.547714,197.624619 191.571915,163.306168 191.587173,128.987808 
	C191.587860,127.417793 191.830872,125.847878 191.981628,124.029320 
	C198.043579,124.029320 203.522568,124.015106 209.001419,124.035759 
	C211.471054,124.045067 213.936874,123.955765 213.899597,120.604507 
	C213.863953,117.399750 211.570465,117.038467 209.012283,117.058662 
	C203.398117,117.102982 197.783356,117.072395 191.901581,117.072395 
	C191.901581,108.058502 191.901581,99.676865 191.901581,90.717911 
	C194.021698,90.717911 195.809387,90.716843 197.597061,90.718086 
	C205.926773,90.723854 214.264359,90.922516 222.579819,90.581245 
	C224.334106,90.509247 226.007217,88.459427 227.690231,86.528343 
M177.379776,340.368286 
	C177.379776,327.450073 177.379776,314.531860 177.379776,301.800964 
	C173.644440,301.800964 170.582733,301.800964 167.067719,301.800964 
	C167.067719,309.721222 167.067719,317.215424 167.067719,324.709656 
	C163.388351,319.130615 160.517502,313.399414 157.573410,307.706085 
	C153.864883,300.534454 152.821426,300.110077 144.471924,302.047638 
	C144.471924,317.278198 144.471924,332.501251 144.471924,347.772949 
	C147.882599,347.772949 150.969910,347.772949 154.684692,347.772949 
	C154.684692,340.061462 154.684692,332.599121 154.684692,325.136780 
	C158.221695,330.124481 160.876678,335.217377 163.435120,340.358246 
	C167.557480,348.641724 167.530609,348.655090 177.379257,347.661041 
	C177.379257,345.589844 177.379257,343.457794 177.379776,340.368286 
M181.013412,142.500000 
	C181.013412,123.082520 181.013412,103.665039 181.013412,83.860039 
	C167.961227,83.860039 155.659622,83.772491 143.363831,83.998703 
	C142.165710,84.020737 141.003189,85.978355 139.824142,87.037498 
	C141.044739,88.260139 142.197220,90.446671 143.497742,90.538597 
	C149.133850,90.936966 154.813187,90.726860 160.476807,90.731873 
	C165.554047,90.736359 170.631287,90.732811 175.534973,90.732811 
	C175.534973,99.987785 175.534973,108.377884 175.534973,117.080925 
	C169.944138,117.080925 164.792603,117.065697 159.641235,117.086998 
	C156.830811,117.098618 153.311462,116.611343 153.348358,120.751205 
	C153.382996,124.639526 156.753815,124.034531 159.381760,124.037140 
	C164.803253,124.042526 170.224747,124.038750 175.940125,124.038750 
	C175.940125,126.522049 175.939697,128.167938 175.940186,129.813828 
	C175.950485,164.628571 176.000351,199.443420 175.919952,234.257950 
	C175.910202,238.483215 176.917099,241.910706 181.013428,244.965256 
	C181.013428,210.667770 181.013428,177.083878 181.013412,142.500000 
M112.871780,301.353485 
	C110.119095,300.989929 109.082962,302.019257 109.138565,304.948822 
	C109.315582,314.274750 109.212212,323.606049 109.215599,332.935272 
	C109.217392,337.877106 109.215919,342.818939 109.215919,347.793457 
	C119.312714,347.793457 128.741379,347.793457 138.428223,347.793457 
	C138.428223,344.313629 138.428223,341.078613 138.428223,337.369141 
	C132.280212,337.369141 126.364220,337.369141 120.256874,337.369141 
	C120.256874,334.140839 120.256874,331.387878 120.256874,328.211121 
	C125.766869,328.211121 131.042862,328.211121 136.449005,328.211121 
	C136.449005,324.887115 136.449005,321.990295 136.449005,318.711304 
	C130.892105,318.711304 125.623268,318.711304 120.303650,318.711304 
	C120.303650,316.065216 120.303650,313.818115 120.303650,311.151489 
	C126.336433,311.151489 132.083969,311.151489 137.854248,311.151489 
	C137.854248,307.768127 137.854248,304.810822 137.854248,301.354858 
	C129.717178,301.354858 121.758522,301.354858 112.871780,301.353485 
M48.940987,342.182617 
	C52.437946,341.586456 56.173904,339.995667 59.344578,340.757477 
	C61.329556,341.234436 62.463707,345.252319 64.001534,347.716492 
	C67.098656,347.716492 70.494743,347.716492 74.320320,347.716492 
	C70.629158,334.555573 67.113503,321.786407 63.454243,309.058502 
	C61.150616,301.045837 61.055668,301.205933 52.926777,301.300110 
	C50.215660,301.331512 49.304653,302.276093 48.642181,304.819885 
	C46.387428,313.477783 43.762383,322.038513 41.347656,330.655670 
	C39.770329,336.284546 38.312355,341.946869 36.763847,347.732727 
	C40.887119,347.732727 44.312618,347.732727 47.634724,347.732727 
	C48.073772,345.974915 48.436005,344.524689 48.940987,342.182617 
M12.343056,338.440125 
	C12.343056,341.551300 12.343056,344.662476 12.343056,347.847961 
	C16.286377,347.847961 19.574825,347.847961 23.262873,347.847961 
	C23.262873,341.551270 23.262873,335.446259 23.262873,328.858398 
	C27.905865,328.858398 32.159683,328.858398 36.385620,328.858398 
	C36.385620,325.475342 36.385620,322.601288 36.385620,319.136688 
	C31.789141,319.136688 27.574856,319.136688 23.562218,319.136688 
	C23.562218,316.287354 23.562218,314.049255 23.562218,311.387756 
	C28.855825,311.387756 33.794136,311.387756 38.677826,311.387756 
	C38.677826,307.856567 38.677826,304.776794 38.677826,301.707642 
	C29.802183,301.707642 21.239082,301.707642 12.343076,301.707642 
	C12.343076,313.863129 12.343076,325.660583 12.343056,338.440125 
M266.643127,328.032013 
	C268.092163,333.835144 269.438812,339.667572 271.082947,345.414886 
	C271.385559,346.472687 272.925964,347.903503 273.837036,347.862762 
	C274.817413,347.818970 276.206726,346.408417 276.580750,345.309387 
	C277.647949,342.173676 278.264893,338.886719 279.104248,335.671112 
	C281.114105,327.971405 283.149933,320.278534 285.175232,312.582886 
	C285.487549,312.649780 285.799835,312.716705 286.112122,312.783600 
	C286.112122,324.419647 286.112122,336.055664 286.112122,348.119537 
	C287.730469,347.928650 289.049957,347.773010 290.265686,347.629608 
	C290.265686,332.002197 290.265686,316.899567 290.265686,301.834778 
	C285.965332,300.496460 283.766724,301.288330 282.781891,306.074036 
	C280.842041,315.500153 278.162598,324.775879 275.705627,334.091766 
	C275.352936,335.429047 274.536011,336.643860 273.512146,338.806122 
	C270.757782,327.392059 268.277222,317.076263 265.776978,306.765228 
	C264.299927,300.673859 264.163879,300.604889 257.480560,301.987274 
	C257.480560,317.196350 257.480560,332.441315 257.480560,347.792969 
	C258.998779,347.792969 260.243103,347.792969 261.954773,347.792969 
	C261.954773,336.210876 261.954773,324.884155 261.954773,313.557465 
	C262.253937,313.520142 262.553131,313.482849 262.852295,313.445557 
	C264.043121,318.040863 265.233917,322.636139 266.643127,328.032013 
M321.780792,301.511963 
	C321.533630,301.916290 321.071350,302.320068 321.070374,302.724976 
	C321.033478,317.687347 321.039307,332.649811 321.039307,348.053284 
	C322.710785,347.898438 324.021271,347.777039 325.782471,347.613861 
	C325.782471,335.848145 325.782471,324.542908 325.782471,313.237640 
	C327.124786,314.850311 327.536316,316.561554 327.971588,318.266724 
	C330.270538,327.272217 332.511383,336.293701 334.961731,345.257904 
	C335.258820,346.344849 336.680084,347.817413 337.610626,347.839569 
	C338.505280,347.860840 339.604736,346.341095 340.301453,345.290985 
	C340.822052,344.506348 340.836792,343.389496 341.091187,342.424377 
	C343.516357,333.222839 345.944611,324.022156 348.371948,314.821198 
	C348.760468,314.875397 349.148987,314.929626 349.537506,314.983826 
	C349.537506,325.862152 349.537506,336.740479 349.537506,347.824707 
	C351.288544,347.824707 352.520691,347.824707 353.697113,347.824707 
	C353.697113,332.228180 353.697113,316.844055 353.697113,301.502991 
	C351.670288,301.502991 350.018311,301.502991 348.010925,301.502991 
	C344.719055,313.950958 341.435822,326.366364 338.152557,338.781738 
	C337.878143,338.716949 337.603729,338.652161 337.329315,338.587402 
	C334.227783,326.238129 331.126251,313.888855 327.989166,301.398010 
	C325.948944,301.398010 324.295074,301.398010 321.780792,301.511963 
M95.399612,301.359375 
	C87.658157,301.359375 79.916702,301.359375 72.313095,301.359375 
	C72.313095,305.598083 72.313095,309.167969 72.313095,313.083405 
	C75.951065,313.083405 79.226715,313.083405 82.887749,313.083405 
	C82.887749,324.845673 82.887749,336.257202 82.887749,347.702698 
	C86.673347,347.702698 90.062454,347.702698 93.929680,347.702698 
	C93.929680,335.993561 93.929680,324.613953 93.929680,312.780182 
	C97.635399,312.780182 100.861916,312.780182 104.138535,312.780182 
	C104.138535,308.751862 104.138535,305.199158 104.138535,301.359619 
	C101.307808,301.359619 98.834785,301.359619 95.399612,301.359375 
M223.734665,327.001343 
	C221.753693,333.813141 219.772736,340.624939 217.687820,347.794189 
	C219.591202,347.794189 221.007690,347.794189 222.615372,347.794189 
	C223.958481,343.150238 225.273285,338.604218 226.539169,334.227325 
	C231.588852,334.227325 236.201920,334.227325 240.868027,334.227325 
	C241.801331,337.464233 242.807007,340.464111 243.514297,343.532776 
	C244.336380,347.099518 245.670624,349.469330 249.997253,347.409119 
	C245.626099,332.895599 241.327148,318.421539 236.811752,304.015320 
	C236.456421,302.881622 234.580399,301.515472 233.436600,301.538208 
	C232.300674,301.560822 230.546204,303.000031 230.185211,304.165558 
	C227.925919,311.460083 225.980667,318.851868 223.734665,327.001343 
M199.856918,78.236580 
	C199.881851,67.699615 200.249908,57.146511 199.755280,46.633995 
	C199.569092,42.676979 196.050949,40.471077 191.867737,40.432331 
	C186.383865,40.381538 180.898651,40.445942 175.414246,40.489231 
	C170.660904,40.526749 167.506622,43.188847 167.262512,47.617393 
	C166.732544,57.231861 166.893219,66.887230 166.937500,76.525108 
	C166.941025,77.290733 168.248093,78.674561 168.913574,78.653252 
	C169.725693,78.627243 170.874222,77.558464 171.199356,76.687561 
	C171.642792,75.499832 171.507111,74.073418 171.513672,72.748810 
	C171.547455,65.931099 171.703476,59.108582 171.501190,52.297112 
	C171.377457,48.129818 173.085739,46.638737 177.121780,46.844822 
	C181.434174,47.065010 185.775085,47.075592 190.087097,46.855457 
	C194.381622,46.636211 196.115494,48.356812 196.002106,52.674671 
	C195.810089,59.986546 195.915131,67.307106 195.956985,74.623665 
	C195.968948,76.717644 195.501068,79.359184 199.856918,78.236580 
M205.136383,309.371124 
	C206.218994,308.577789 207.234100,307.245117 208.397781,307.099457 
	C211.111481,306.759827 213.896622,306.991119 216.880081,306.991119 
	C216.774551,304.781647 216.705154,303.328522 216.627121,301.694641 
	C207.351990,301.694641 198.317139,301.694641 188.943375,301.694641 
	C189.084305,303.641418 189.196945,305.197632 189.332642,307.072205 
	C193.190338,307.072205 196.635406,307.072205 200.514877,307.072205 
	C200.514877,320.824280 200.514877,334.233856 200.514877,348.078247 
	C202.339310,347.925262 203.686264,347.812347 205.137024,347.690704 
	C205.137024,334.881256 205.137024,322.571259 205.136383,309.371124 
M175.900909,21.487091 
	C175.941376,22.315342 175.903778,23.156227 176.035446,23.969717 
	C176.704910,28.106043 178.807983,31.369392 183.115494,31.815258 
	C187.699661,32.289757 190.375626,28.944027 190.887604,24.992077 
	C191.325531,21.611620 190.953583,17.613388 189.475189,14.609161 
	C186.776703,9.125628 180.189407,9.456038 177.295059,14.909346 
	C176.403778,16.588587 176.343170,18.708702 175.900909,21.487091 
M303.328064,307.714264 
	C303.328064,321.092255 303.328064,334.470245 303.328064,347.862793 
	C305.272705,347.862793 306.534027,347.862793 307.822327,347.862793 
	C307.822327,332.289490 307.822327,316.955505 307.822327,301.673370 
	C302.142914,300.126312 303.521545,304.097107 303.328064,307.714264 
M237.638214,94.721863 
	C243.163544,92.861374 245.309006,86.782562 242.083191,82.127777 
	C239.786957,78.814362 235.537933,79.055779 233.554016,82.612389 
	C231.177765,86.872330 232.488724,91.506355 237.638214,94.721863 
M131.811188,93.150566 
	C132.581467,91.184387 134.290421,89.004906 133.903397,87.301712 
	C133.313751,84.706886 131.542145,82.185158 129.662048,80.214844 
	C129.184845,79.714745 125.839340,80.943207 124.789001,82.196411 
	C122.136749,85.360985 122.428703,89.078537 124.804100,92.347435 
	C126.394859,94.536530 128.607697,95.652519 131.811188,93.150566 
M195.457947,389.049072 
	C196.288147,389.968689 197.118362,390.888336 198.295898,392.192719 
	C198.295898,386.528961 198.295898,381.873352 198.295898,377.217743 
	C197.895340,377.213989 197.494797,377.210236 197.094238,377.206482 
	C196.770752,379.332092 196.447266,381.457672 196.020691,384.260590 
	C194.130692,381.354187 192.614120,379.022034 191.097534,376.689880 
	C190.663712,376.848663 190.229889,377.007446 189.796082,377.166229 
	C189.434860,381.954285 188.779984,386.758881 190.114166,391.451385 
	C190.667114,391.449158 191.220062,391.446960 191.773026,391.444763 
	C191.946945,389.181091 192.120865,386.917389 192.376663,383.588165 
	C193.671371,385.868073 194.389511,387.132660 195.457947,389.049072 
M302.716064,376.957428 
	C300.975525,381.657654 299.234985,386.357910 297.494415,391.058136 
	C297.910034,391.505890 298.325623,391.953674 298.741211,392.401428 
	C301.918091,386.087158 305.215210,387.523376 308.783936,391.887329 
	C308.170563,387.545380 307.412018,383.872101 306.251831,380.330414 
	C305.824677,379.026489 304.449371,378.033112 302.716064,376.957428 
M55.942543,382.010223 
	C55.894482,383.003906 55.734791,384.007080 55.818352,384.989563 
	C56.123741,388.580231 57.310371,392.067230 61.538872,391.621826 
	C65.968376,391.155182 66.632782,387.639404 65.773666,383.243530 
	C64.176300,383.346741 62.705444,383.441772 60.123043,383.608643 
	C61.955650,385.321075 62.858170,386.164429 63.760689,387.007751 
	C63.598358,387.439117 63.436028,387.870453 63.273697,388.301819 
	C61.808395,387.938812 59.446381,387.973724 59.070702,387.127167 
	C58.361412,385.528870 58.065533,382.317078 58.907356,381.762054 
	C60.590897,380.652069 63.157761,380.881897 66.527405,380.387054 
	C64.778259,379.028931 62.929405,376.673859 61.907356,376.990204 
	C59.740501,377.660858 58.004593,379.723877 55.942543,382.010223 
M83.890251,388.248047 
	C85.948227,389.260498 88.006210,390.272919 90.845566,391.669769 
	C89.556458,387.007996 88.537605,382.724518 87.052116,378.609497 
	C86.833977,378.005249 83.248840,377.819733 83.161201,378.083923 
	C81.717354,382.436310 80.584686,386.891937 79.382195,391.324402 
	C79.850578,391.475647 80.318970,391.626862 80.787354,391.778076 
	C81.583755,390.664429 82.380150,389.550781 83.890251,388.248047 
M167.613770,390.963013 
	C169.694336,390.614441 172.954239,390.933289 173.608429,389.777435 
	C174.944809,387.416229 175.658173,384.104431 175.129562,381.486847 
	C174.750000,379.607391 171.972214,377.005920 170.204193,376.958313 
	C168.495026,376.912292 165.438675,379.577179 165.240082,381.310822 
	C164.901718,384.264557 166.337906,387.421631 167.613770,390.963013 
M40.802525,376.667358 
	C38.707390,376.667358 36.612259,376.667358 34.407753,376.667358 
	C34.407753,381.996857 34.407753,386.688995 34.407753,391.933197 
	C37.218735,391.686890 39.595596,391.478638 43.113876,391.170380 
	C37.205997,387.367523 37.205997,387.367523 40.541882,383.893433 
	C39.352493,383.044678 38.155777,382.190643 36.959064,381.336639 
	C38.146820,380.774811 39.489197,380.398529 40.466442,379.584076 
	C41.088860,379.065399 41.169838,377.897034 40.802525,376.667358 
M140.917938,386.674011 
	C141.935028,389.734619 143.571304,392.475342 147.220627,391.534546 
	C148.819550,391.122314 149.966476,388.956909 151.815948,387.083954 
	C148.278198,387.364349 146.268723,387.523621 144.259247,387.682892 
	C144.126617,385.637726 143.121490,382.695190 144.075485,381.767670 
	C145.355728,380.523041 148.150375,380.836090 151.211166,380.328430 
	C149.902039,379.210052 148.629929,377.340576 147.028152,376.993805 
	C145.660034,376.697571 143.158554,377.732758 142.502289,378.921112 
	C141.378128,380.956757 141.303436,383.571899 140.917938,386.674011 
M330.069733,377.711334 
	C329.790314,379.706818 329.510864,381.702301 329.112610,384.546478 
	C327.204803,381.380066 325.828430,379.095612 324.452057,376.811188 
	C324.152222,376.955475 323.852386,377.099762 323.552551,377.244049 
	C323.552551,381.952179 323.552551,386.660309 323.552551,391.368439 
	C323.985931,391.361938 324.419342,391.355438 324.852722,391.348938 
	C324.852722,388.878754 324.852722,386.408539 324.852722,382.452942 
	C327.250519,386.540527 328.834259,389.240356 330.417969,391.940216 
	C331.139069,391.674927 331.860138,391.409637 332.581238,391.144348 
	C331.961090,386.494873 331.340942,381.845367 330.069733,377.711334 
M217.953995,388.233063 
	C216.507324,388.233063 215.060654,388.233063 213.261002,388.233063 
	C213.917053,391.365173 216.209885,392.939667 218.467606,391.372925 
	C225.622192,386.408051 217.555420,384.023163 215.553940,380.255554 
	C217.619949,380.255554 219.038681,380.255554 220.457413,380.255554 
	C220.640366,379.789368 220.823318,379.323151 221.006287,378.856964 
	C219.483582,378.118835 217.970169,376.853210 216.434952,376.826141 
	C215.393173,376.807800 213.500900,378.481262 213.444366,379.480469 
	C213.347061,381.199188 214.138184,383.122559 215.029099,384.691620 
	C215.683716,385.844482 217.093216,386.568756 217.953995,388.233063 
M241.557266,387.033600 
	C238.450638,390.037109 237.753769,387.898468 237.514282,385.083435 
	C237.288879,382.434296 237.209442,379.772705 237.065796,377.116608 
	C236.421051,377.194275 235.776291,377.271973 235.131531,377.349640 
	C235.131531,380.771942 234.675919,384.284210 235.326553,387.578003 
	C235.644806,389.189148 237.869476,391.200989 239.516708,391.510010 
	C240.692734,391.730652 243.355286,389.586121 243.585678,388.202454 
	C244.177170,384.650269 243.783279,380.933990 243.783279,377.283325 
	C243.254562,377.258118 242.725830,377.232910 242.197113,377.207733 
	C242.057404,380.182037 241.917694,383.156372 241.557266,387.033600 
M351.894958,388.136414 
	C352.475830,384.620270 353.056732,381.104126 353.802032,376.592682 
	C352.435516,376.592682 349.917419,376.501526 347.426605,376.720459 
	C347.148834,376.744843 346.670776,378.629669 346.904968,379.481415 
	C347.400818,381.285095 348.602234,382.916473 348.967834,384.728760 
	C349.423218,386.986237 349.327545,389.354858 349.469818,391.675507 
	C349.938843,391.716125 350.407867,391.756775 350.876862,391.797424 
	C351.215454,390.865265 351.554047,389.933105 351.894958,388.136414 
M277.341583,378.535461 
	C279.974548,379.876678 280.805084,381.956360 280.510284,384.903473 
	C280.291656,387.089172 280.783417,389.345947 280.958740,391.571045 
	C281.361267,391.548584 281.763824,391.526123 282.166382,391.503693 
	C283.085510,386.838287 284.004639,382.172913 285.113220,376.545837 
	C283.033508,376.877258 280.225098,377.324799 277.341583,378.535461 
M15.992360,381.733643 
	C15.867431,380.072266 15.742501,378.410919 15.617572,376.749542 
	C15.080135,376.754120 14.542699,376.758698 14.005262,376.763275 
	C14.005262,381.659698 14.005262,386.556122 14.005262,391.980499 
	C16.279335,391.725708 18.492178,391.477783 20.705021,391.229858 
	C20.723923,390.779419 20.742823,390.328979 20.761724,389.878540 
	C19.219088,389.337128 17.676449,388.795715 15.992027,388.204529 
	C15.992027,386.237885 15.992027,384.427399 15.992360,381.733643 
M106.082146,377.055237 
	C105.421120,377.451385 104.198830,377.829590 104.185509,378.246460 
	C104.045624,382.624054 104.099075,387.007812 104.099075,392.043793 
	C107.022530,391.703033 109.206917,391.448395 111.391304,391.193787 
	C111.351173,390.655548 111.311043,390.117310 111.270920,389.579071 
	C109.825638,389.159729 108.380356,388.740356 106.566635,388.214081 
	C106.566635,384.551727 106.566635,381.109222 106.082146,377.055237 
M265.735168,390.437561 
	C264.266235,389.680145 262.797333,388.922699 261.224579,388.111725 
	C261.029724,384.507141 260.827148,380.760590 260.624603,377.014069 
	C260.087860,377.040863 259.551147,377.067627 259.014404,377.094421 
	C259.014404,381.830414 259.014404,386.566437 259.014404,391.902435 
	C261.310944,391.640137 263.381226,391.403656 265.735168,390.437561 
z"/>
<path fill="#9A8E51" opacity="1.000000" stroke="none" 
	d="
M116.103569,140.055389 
	C118.168716,135.834763 119.855804,131.823624 122.028587,128.095551 
	C125.685379,121.821251 126.963074,115.157784 126.337898,108.005074 
	C126.208992,106.530312 126.216728,104.950508 126.625862,103.555283 
	C126.888840,102.658516 128.000839,102.010719 128.732300,101.251328 
	C129.432205,102.068596 130.675873,102.847054 130.737442,103.709862 
	C130.997589,107.355614 130.683167,111.046844 131.015564,114.681503 
	C131.266129,117.421471 131.716324,120.320061 132.874924,122.771202 
	C139.983734,137.810730 147.230698,152.787216 154.644485,167.678741 
	C156.426331,171.257828 157.072845,174.713165 155.144409,178.125565 
	C151.416962,184.721329 148.339157,192.059708 143.238586,197.422531 
	C133.837402,207.307053 120.599304,206.010498 111.814507,195.556870 
	C110.002014,193.400070 108.394005,191.049820 106.875648,188.671326 
	C101.248863,179.856995 99.085670,171.224091 105.661545,161.439468 
	C109.975952,155.019791 112.576035,147.447952 116.103569,140.055389 
M129.928177,127.818207 
	C129.536041,127.306374 129.143921,126.794533 128.372314,125.787384 
	C121.263840,140.528458 114.346672,154.872787 107.183128,169.728027 
	C121.955193,169.728027 135.633148,169.728027 150.070984,169.728027 
	C143.277176,155.611786 136.747070,142.043503 129.928177,127.818207 
M140.437515,175.962357 
	C129.368378,175.962357 118.299225,175.962357 107.173187,175.962357 
	C108.468765,186.676483 118.767159,197.537857 127.672035,198.043671 
	C137.225586,198.586319 147.756775,188.493439 150.344711,175.955368 
	C147.308197,175.955368 144.358246,175.955368 140.437515,175.962357 
z"/>
<path fill="#998E50" opacity="1.000000" stroke="none" 
	d="
M248.008698,201.156342 
	C237.052673,206.689758 226.433884,203.822571 218.799042,192.539795 
	C215.219849,187.250458 212.946381,181.023056 210.529572,175.039673 
	C209.919128,173.528351 210.624847,171.129929 211.413223,169.464615 
	C218.459854,154.579895 225.838913,139.849762 232.694824,124.879364 
	C234.489334,120.960922 234.949127,116.389603 235.726852,112.065063 
	C236.104172,109.967102 235.518570,107.695488 235.899261,105.598785 
	C236.171875,104.097443 237.325500,102.756073 238.086060,101.343330 
	C238.768585,102.678917 240.203323,104.131927 240.016022,105.331741 
	C238.336060,116.093544 242.981064,125.098579 247.501312,134.214325 
	C253.264725,145.837036 258.990692,157.481888 264.450378,169.248245 
	C265.385376,171.263290 265.606201,174.142868 264.966705,176.264267 
	C261.984802,186.155670 257.414886,195.127457 248.008698,201.156342 
M249.432648,170.025620 
	C252.504913,170.025620 255.577179,170.025620 259.563538,170.025620 
	C252.242203,154.866653 245.361847,140.620773 237.937134,125.247780 
	C230.508698,140.677002 223.617981,154.989365 216.376083,170.031113 
	C227.867584,170.031113 238.160812,170.031113 249.432648,170.025620 
M237.587234,198.045105 
	C247.897751,197.306396 257.654144,187.601334 259.484650,176.281616 
	C245.116989,176.281616 230.748077,176.281616 215.640182,176.281616 
	C220.099472,186.687042 224.697556,195.902084 237.587234,198.045105 
z"/>
<path fill="#9C904E" opacity="1.000000" stroke="none" 
	d="
M227.703979,86.924629 
	C226.007217,88.459427 224.334106,90.509247 222.579819,90.581245 
	C214.264359,90.922516 205.926773,90.723854 197.597061,90.718086 
	C195.809387,90.716843 194.021698,90.717911 191.901581,90.717911 
	C191.901581,99.676865 191.901581,108.058502 191.901581,117.072395 
	C197.783356,117.072395 203.398117,117.102982 209.012283,117.058662 
	C211.570465,117.038467 213.863953,117.399750 213.899597,120.604507 
	C213.936874,123.955765 211.471054,124.045067 209.001419,124.035759 
	C203.522568,124.015106 198.043579,124.029320 191.981628,124.029320 
	C191.830872,125.847878 191.587860,127.417793 191.587173,128.987808 
	C191.571915,163.306168 191.547714,197.624619 191.629623,231.942795 
	C191.641571,236.949707 190.819016,241.452469 186.487732,245.343414 
	C186.487732,191.409607 186.487732,137.940430 186.487732,83.851700 
	C196.477112,83.851700 206.252167,83.852272 216.027206,83.851295 
	C218.526108,83.851051 221.081406,83.528831 223.503204,83.959549 
	C225.003693,84.226395 226.301468,85.633232 227.703979,86.924629 
z"/>
<path fill="#0A0A0A" opacity="1.000000" stroke="none" 
	d="
M177.379517,340.846985 
	C177.379257,343.457794 177.379257,345.589844 177.379257,347.661041 
	C167.530609,348.655090 167.557480,348.641724 163.435120,340.358246 
	C160.876678,335.217377 158.221695,330.124481 154.684692,325.136780 
	C154.684692,332.599121 154.684692,340.061462 154.684692,347.772949 
	C150.969910,347.772949 147.882599,347.772949 144.471924,347.772949 
	C144.471924,332.501251 144.471924,317.278198 144.471924,302.047638 
	C152.821426,300.110077 153.864883,300.534454 157.573410,307.706085 
	C160.517502,313.399414 163.388351,319.130615 167.067719,324.709656 
	C167.067719,317.215424 167.067719,309.721222 167.067719,301.800964 
	C170.582733,301.800964 173.644440,301.800964 177.379776,301.800964 
	C177.379776,314.531860 177.379776,327.450073 177.379517,340.846985 
z"/>
<path fill="#9C8F4F" opacity="1.000000" stroke="none" 
	d="
M167.013458,227.006134 
	C166.954346,225.931549 166.895248,224.856964 167.225647,223.095520 
	C167.747971,221.599472 167.996231,220.790375 167.996857,219.981094 
	C168.017532,193.229630 168.027069,166.478119 167.974808,139.726746 
	C167.972397,138.493866 167.384109,137.262146 167.068680,136.029877 
	C167.660172,135.204636 168.251648,134.379379 168.843124,133.554123 
	C169.575821,134.132111 170.768433,134.593735 170.949936,135.311157 
	C171.391098,137.054962 171.500610,138.917450 171.502686,140.732391 
	C171.537964,171.565186 171.829834,202.402481 171.363403,233.228165 
	C171.224350,242.418869 177.272141,247.670563 181.596375,254.144806 
	C181.994888,254.741455 185.351044,254.475494 186.018982,253.603241 
	C191.313721,246.688721 196.506424,240.247894 196.254700,230.187973 
	C195.508698,200.373672 195.981186,170.528870 195.977676,140.695999 
	C195.977570,139.862686 195.734207,138.922989 196.035995,138.217590 
	C196.723083,136.611618 197.678970,135.120651 198.525620,133.582947 
	C199.275909,135.042007 200.675293,136.498428 200.681183,137.960495 
	C200.814545,170.959366 200.855240,203.959152 200.697739,236.957733 
	C200.684158,239.804062 199.683044,242.943161 198.239059,245.420807 
	C195.565964,250.007492 192.332474,254.285919 189.127045,258.537933 
	C186.802170,261.621918 183.028839,263.896576 180.310577,260.417267 
	C175.281128,253.979675 171.351456,246.682892 167.262878,239.171265 
	C167.363876,237.727417 167.165710,236.856262 166.967560,235.985107 
	C166.904526,234.921326 166.841492,233.857559 167.154160,232.179993 
	C167.357727,230.046173 167.185593,228.526154 167.013458,227.006134 
z"/>
<path fill="#9A8F50" opacity="1.000000" stroke="none" 
	d="
M181.013428,143.000000 
	C181.013428,177.083878 181.013428,210.667770 181.013428,244.965256 
	C176.917099,241.910706 175.910202,238.483215 175.919952,234.257950 
	C176.000351,199.443420 175.950485,164.628571 175.940186,129.813828 
	C175.939697,128.167938 175.940125,126.522049 175.940125,124.038750 
	C170.224747,124.038750 164.803253,124.042526 159.381760,124.037140 
	C156.753815,124.034531 153.382996,124.639526 153.348358,120.751205 
	C153.311462,116.611343 156.830811,117.098618 159.641235,117.086998 
	C164.792603,117.065697 169.944138,117.080925 175.534973,117.080925 
	C175.534973,108.377884 175.534973,99.987785 175.534973,90.732811 
	C170.631287,90.732811 165.554047,90.736359 160.476807,90.731873 
	C154.813187,90.726860 149.133850,90.936966 143.497742,90.538597 
	C142.197220,90.446671 141.044739,88.260139 139.824158,87.037506 
	C141.003189,85.978355 142.165710,84.020737 143.363831,83.998703 
	C155.659622,83.772491 167.961227,83.860039 181.013412,83.860039 
	C181.013412,103.665039 181.013412,123.082520 181.013428,143.000000 
z"/>
<path fill="#0D0D0D" opacity="1.000000" stroke="none" 
	d="
M113.335815,301.354187 
	C121.758522,301.354858 129.717178,301.354858 137.854248,301.354858 
	C137.854248,304.810822 137.854248,307.768127 137.854248,311.151489 
	C132.083969,311.151489 126.336433,311.151489 120.303650,311.151489 
	C120.303650,313.818115 120.303650,316.065216 120.303650,318.711304 
	C125.623268,318.711304 130.892105,318.711304 136.449005,318.711304 
	C136.449005,321.990295 136.449005,324.887115 136.449005,328.211121 
	C131.042862,328.211121 125.766869,328.211121 120.256874,328.211121 
	C120.256874,331.387878 120.256874,334.140839 120.256874,337.369141 
	C126.364220,337.369141 132.280212,337.369141 138.428223,337.369141 
	C138.428223,341.078613 138.428223,344.313629 138.428223,347.793457 
	C128.741379,347.793457 119.312714,347.793457 109.215919,347.793457 
	C109.215919,342.818939 109.217392,337.877106 109.215599,332.935272 
	C109.212212,323.606049 109.315582,314.274750 109.138565,304.948822 
	C109.082962,302.019257 110.119095,300.989929 113.335815,301.354187 
z"/>
<path fill="#090909" opacity="1.000000" stroke="none" 
	d="
M48.869610,342.628540 
	C48.436005,344.524689 48.073772,345.974915 47.634724,347.732727 
	C44.312618,347.732727 40.887119,347.732727 36.763847,347.732727 
	C38.312355,341.946869 39.770329,336.284546 41.347656,330.655670 
	C43.762383,322.038513 46.387428,313.477783 48.642181,304.819885 
	C49.304653,302.276093 50.215660,301.331512 52.926777,301.300110 
	C61.055668,301.205933 61.150616,301.045837 63.454243,309.058502 
	C67.113503,321.786407 70.629158,334.555573 74.320320,347.716492 
	C70.494743,347.716492 67.098656,347.716492 64.001534,347.716492 
	C62.463707,345.252319 61.329556,341.234436 59.344578,340.757477 
	C56.173904,339.995667 52.437946,341.586456 48.869610,342.628540 
M57.154274,330.120636 
	C57.682644,329.541748 58.745659,328.858917 58.656464,328.400024 
	C57.786579,323.924866 56.724159,319.487122 55.716557,315.038727 
	C55.437344,315.048126 55.158131,315.057556 54.878918,315.066956 
	C53.871643,319.950226 52.864368,324.833466 51.772419,330.127197 
	C53.696823,330.127197 54.987034,330.127197 57.154274,330.120636 
z"/>
<path fill="#0F0F0F" opacity="1.000000" stroke="none" 
	d="
M12.343065,337.949066 
	C12.343076,325.660583 12.343076,313.863129 12.343076,301.707642 
	C21.239082,301.707642 29.802183,301.707642 38.677826,301.707642 
	C38.677826,304.776794 38.677826,307.856567 38.677826,311.387756 
	C33.794136,311.387756 28.855825,311.387756 23.562218,311.387756 
	C23.562218,314.049255 23.562218,316.287354 23.562218,319.136688 
	C27.574856,319.136688 31.789141,319.136688 36.385620,319.136688 
	C36.385620,322.601288 36.385620,325.475342 36.385620,328.858398 
	C32.159683,328.858398 27.905865,328.858398 23.262873,328.858398 
	C23.262873,335.446259 23.262873,341.551270 23.262873,347.847961 
	C19.574825,347.847961 16.286377,347.847961 12.343056,347.847961 
	C12.343056,344.662476 12.343056,341.551300 12.343065,337.949066 
z"/>
<path fill="#141414" opacity="1.000000" stroke="none" 
	d="
M266.533936,327.631714 
	C265.233917,322.636139 264.043121,318.040863 262.852295,313.445557 
	C262.553131,313.482849 262.253937,313.520142 261.954773,313.557465 
	C261.954773,324.884155 261.954773,336.210876 261.954773,347.792969 
	C260.243103,347.792969 258.998779,347.792969 257.480560,347.792969 
	C257.480560,332.441315 257.480560,317.196350 257.480560,301.987274 
	C264.163879,300.604889 264.299927,300.673859 265.776978,306.765228 
	C268.277222,317.076263 270.757782,327.392059 273.512146,338.806122 
	C274.536011,336.643860 275.352936,335.429047 275.705627,334.091766 
	C278.162598,324.775879 280.842041,315.500153 282.781891,306.074036 
	C283.766724,301.288330 285.965332,300.496460 290.265686,301.834778 
	C290.265686,316.899567 290.265686,332.002197 290.265686,347.629608 
	C289.049957,347.773010 287.730469,347.928650 286.112122,348.119537 
	C286.112122,336.055664 286.112122,324.419647 286.112122,312.783600 
	C285.799835,312.716705 285.487549,312.649780 285.175232,312.582886 
	C283.149933,320.278534 281.114105,327.971405 279.104248,335.671112 
	C278.264893,338.886719 277.647949,342.173676 276.580750,345.309387 
	C276.206726,346.408417 274.817413,347.818970 273.837036,347.862762 
	C272.925964,347.903503 271.385559,346.472687 271.082947,345.414886 
	C269.438812,339.667572 268.092163,333.835144 266.533936,327.631714 
z"/>
<path fill="#0C0C0C" opacity="1.000000" stroke="none" 
	d="
M322.210999,301.454987 
	C324.295074,301.398010 325.948944,301.398010 327.989166,301.398010 
	C331.126251,313.888855 334.227783,326.238129 337.329315,338.587402 
	C337.603729,338.652161 337.878143,338.716949 338.152557,338.781738 
	C341.435822,326.366364 344.719055,313.950958 348.010925,301.502991 
	C350.018311,301.502991 351.670288,301.502991 353.697113,301.502991 
	C353.697113,316.844055 353.697113,332.228180 353.697113,347.824707 
	C352.520691,347.824707 351.288544,347.824707 349.537506,347.824707 
	C349.537506,336.740479 349.537506,325.862152 349.537506,314.983826 
	C349.148987,314.929626 348.760468,314.875397 348.371948,314.821198 
	C345.944611,324.022156 343.516357,333.222839 341.091187,342.424377 
	C340.836792,343.389496 340.822052,344.506348 340.301453,345.290985 
	C339.604736,346.341095 338.505280,347.860840 337.610626,347.839569 
	C336.680084,347.817413 335.258820,346.344849 334.961731,345.257904 
	C332.511383,336.293701 330.270538,327.272217 327.971588,318.266724 
	C327.536316,316.561554 327.124786,314.850311 325.782471,313.237640 
	C325.782471,324.542908 325.782471,335.848145 325.782471,347.613861 
	C324.021271,347.777039 322.710785,347.898438 321.039307,348.053284 
	C321.039307,332.649811 321.033478,317.687347 321.070374,302.724976 
	C321.071350,302.320068 321.533630,301.916290 322.210999,301.454987 
z"/>
<path fill="#0C0C0C" opacity="1.000000" stroke="none" 
	d="
M95.880684,301.359497 
	C98.834785,301.359619 101.307808,301.359619 104.138535,301.359619 
	C104.138535,305.199158 104.138535,308.751862 104.138535,312.780182 
	C100.861916,312.780182 97.635399,312.780182 93.929680,312.780182 
	C93.929680,324.613953 93.929680,335.993561 93.929680,347.702698 
	C90.062454,347.702698 86.673347,347.702698 82.887749,347.702698 
	C82.887749,336.257202 82.887749,324.845673 82.887749,313.083405 
	C79.226715,313.083405 75.951065,313.083405 72.313095,313.083405 
	C72.313095,309.167969 72.313095,305.598083 72.313095,301.359375 
	C79.916702,301.359375 87.658157,301.359375 95.880684,301.359497 
z"/>
<path fill="#111111" opacity="1.000000" stroke="none" 
	d="
M223.833069,326.606384 
	C225.980667,318.851868 227.925919,311.460083 230.185211,304.165558 
	C230.546204,303.000031 232.300674,301.560822 233.436600,301.538208 
	C234.580399,301.515472 236.456421,302.881622 236.811752,304.015320 
	C241.327148,318.421539 245.626099,332.895599 249.997253,347.409119 
	C245.670624,349.469330 244.336380,347.099518 243.514297,343.532776 
	C242.807007,340.464111 241.801331,337.464233 240.868027,334.227325 
	C236.201920,334.227325 231.588852,334.227325 226.539169,334.227325 
	C225.273285,338.604218 223.958481,343.150238 222.615372,347.794189 
	C221.007690,347.794189 219.591202,347.794189 217.687820,347.794189 
	C219.772736,340.624939 221.753693,333.813141 223.833069,326.606384 
M229.391907,322.913300 
	C228.947998,324.792267 228.504089,326.671204 228.017960,328.728821 
	C231.866333,328.728821 235.330780,328.728821 239.343079,328.728821 
	C237.430420,321.842682 235.596695,315.240723 233.520340,307.765198 
	C232.061584,313.180603 230.855408,317.658325 229.391907,322.913300 
z"/>
<path fill="#9A8F50" opacity="1.000000" stroke="none" 
	d="
M199.500183,78.451370 
	C195.501068,79.359184 195.968948,76.717644 195.956985,74.623665 
	C195.915131,67.307106 195.810089,59.986546 196.002106,52.674671 
	C196.115494,48.356812 194.381622,46.636211 190.087097,46.855457 
	C185.775085,47.075592 181.434174,47.065010 177.121780,46.844822 
	C173.085739,46.638737 171.377457,48.129818 171.501190,52.297112 
	C171.703476,59.108582 171.547455,65.931099 171.513672,72.748810 
	C171.507111,74.073418 171.642792,75.499832 171.199356,76.687561 
	C170.874222,77.558464 169.725693,78.627243 168.913574,78.653252 
	C168.248093,78.674561 166.941025,77.290733 166.937500,76.525108 
	C166.893219,66.887230 166.732544,57.231861 167.262512,47.617393 
	C167.506622,43.188847 170.660904,40.526749 175.414246,40.489231 
	C180.898651,40.445942 186.383865,40.381538 191.867737,40.432331 
	C196.050949,40.471077 199.569092,42.676979 199.755280,46.633995 
	C200.249908,57.146511 199.881851,67.699615 199.500183,78.451370 
z"/>
<path fill="#121212" opacity="1.000000" stroke="none" 
	d="
M205.136703,309.816193 
	C205.137024,322.571259 205.137024,334.881256 205.137024,347.690704 
	C203.686264,347.812347 202.339310,347.925262 200.514877,348.078247 
	C200.514877,334.233856 200.514877,320.824280 200.514877,307.072205 
	C196.635406,307.072205 193.190338,307.072205 189.332642,307.072205 
	C189.196945,305.197632 189.084305,303.641418 188.943375,301.694641 
	C198.317139,301.694641 207.351990,301.694641 216.627121,301.694641 
	C216.705154,303.328522 216.774551,304.781647 216.880081,306.991119 
	C213.896622,306.991119 211.111481,306.759827 208.397781,307.099457 
	C207.234100,307.245117 206.218994,308.577789 205.136703,309.816193 
z"/>
<path fill="#988B4A" opacity="1.000000" stroke="none" 
	d="
M175.901566,21.057018 
	C176.343170,18.708702 176.403778,16.588587 177.295059,14.909346 
	C180.189407,9.456038 186.776703,9.125628 189.475189,14.609161 
	C190.953583,17.613388 191.325531,21.611620 190.887604,24.992077 
	C190.375626,28.944027 187.699661,32.289757 183.115494,31.815258 
	C178.807983,31.369392 176.704910,28.106043 176.035446,23.969717 
	C175.903778,23.156227 175.941376,22.315342 175.901566,21.057018 
z"/>
<path fill="#1D1D1D" opacity="1.000000" stroke="none" 
	d="
M303.323730,307.249817 
	C303.521545,304.097107 302.142914,300.126312 307.822327,301.673370 
	C307.822327,316.955505 307.822327,332.289490 307.822327,347.862793 
	C306.534027,347.862793 305.272705,347.862793 303.328064,347.862793 
	C303.328064,334.470245 303.328064,321.092255 303.323730,307.249817 
z"/>
<path fill="#998E50" opacity="1.000000" stroke="none" 
	d="
M237.283218,94.630791 
	C232.488724,91.506355 231.177765,86.872330 233.554016,82.612389 
	C235.537933,79.055779 239.786957,78.814362 242.083191,82.127777 
	C245.309006,86.782562 243.163544,92.861374 237.283218,94.630791 
z"/>
<path fill="#988C4E" opacity="1.000000" stroke="none" 
	d="
M131.523743,93.388702 
	C128.607697,95.652519 126.394859,94.536530 124.804100,92.347435 
	C122.428703,89.078537 122.136749,85.360985 124.789001,82.196411 
	C125.839340,80.943207 129.184845,79.714745 129.662048,80.214844 
	C131.542145,82.185158 133.313751,84.706886 133.903397,87.301712 
	C134.290421,89.004906 132.581467,91.184387 131.523743,93.388702 
z"/>
<path fill="#7B7E7D" opacity="1.000000" stroke="none" 
	d="
M195.282791,388.723145 
	C194.389511,387.132660 193.671371,385.868073 192.376663,383.588165 
	C192.120865,386.917389 191.946945,389.181091 191.773026,391.444763 
	C191.220062,391.446960 190.667114,391.449158 190.114166,391.451385 
	C188.779984,386.758881 189.434860,381.954285 189.796082,377.166229 
	C190.229889,377.007446 190.663712,376.848663 191.097534,376.689880 
	C192.614120,379.022034 194.130692,381.354187 196.020691,384.260590 
	C196.447266,381.457672 196.770752,379.332092 197.094238,377.206482 
	C197.494797,377.210236 197.895340,377.213989 198.295898,377.217743 
	C198.295898,381.873352 198.295898,386.528961 198.295898,392.192719 
	C197.118362,390.888336 196.288147,389.968689 195.282791,388.723145 
z"/>
<path fill="#7D7F7F" opacity="1.000000" stroke="none" 
	d="
M303.111328,376.927765 
	C304.449371,378.033112 305.824677,379.026489 306.251831,380.330414 
	C307.412018,383.872101 308.170563,387.545380 308.783936,391.887329 
	C305.215210,387.523376 301.918091,386.087158 298.741211,392.401428 
	C298.325623,391.953674 297.910034,391.505890 297.494415,391.058136 
	C299.234985,386.357910 300.975525,381.657654 303.111328,376.927765 
z"/>
<path fill="#828484" opacity="1.000000" stroke="none" 
	d="
M56.017262,381.613098 
	C58.004593,379.723877 59.740501,377.660858 61.907356,376.990204 
	C62.929405,376.673859 64.778259,379.028931 66.527405,380.387054 
	C63.157761,380.881897 60.590897,380.652069 58.907356,381.762054 
	C58.065533,382.317078 58.361412,385.528870 59.070702,387.127167 
	C59.446381,387.973724 61.808395,387.938812 63.273697,388.301819 
	C63.436028,387.870453 63.598358,387.439117 63.760689,387.007751 
	C62.858170,386.164429 61.955650,385.321075 60.123043,383.608643 
	C62.705444,383.441772 64.176300,383.346741 65.773666,383.243530 
	C66.632782,387.639404 65.968376,391.155182 61.538872,391.621826 
	C57.310371,392.067230 56.123741,388.580231 55.818352,384.989563 
	C55.734791,384.007080 55.894482,383.003906 56.017262,381.613098 
z"/>
<path fill="#7D7F7F" opacity="1.000000" stroke="none" 
	d="
M83.533401,388.342590 
	C82.380150,389.550781 81.583755,390.664429 80.787354,391.778076 
	C80.318970,391.626862 79.850578,391.475647 79.382195,391.324402 
	C80.584686,386.891937 81.717354,382.436310 83.161201,378.083923 
	C83.248840,377.819733 86.833977,378.005249 87.052116,378.609497 
	C88.537605,382.724518 89.556458,387.007996 90.845566,391.669769 
	C88.006210,390.272919 85.948227,389.260498 83.533401,388.342590 
z"/>
<path fill="#808181" opacity="1.000000" stroke="none" 
	d="
M167.321167,390.728149 
	C166.337906,387.421631 164.901718,384.264557 165.240082,381.310822 
	C165.438675,379.577179 168.495026,376.912292 170.204193,376.958313 
	C171.972214,377.005920 174.750000,379.607391 175.129562,381.486847 
	C175.658173,384.104431 174.944809,387.416229 173.608429,389.777435 
	C172.954239,390.933289 169.694336,390.614441 167.321167,390.728149 
M167.176544,385.964172 
	C168.353165,386.867065 169.435974,388.040802 170.765778,388.501312 
	C171.145630,388.632874 172.994034,386.576080 172.859222,385.731934 
	C172.537903,383.719696 171.697830,380.362488 170.599487,380.166168 
	C167.106476,379.541931 167.076065,382.608307 167.176544,385.964172 
z"/>
<path fill="#888A8A" opacity="1.000000" stroke="none" 
	d="
M41.148056,376.843658 
	C41.169838,377.897034 41.088860,379.065399 40.466442,379.584076 
	C39.489197,380.398529 38.146820,380.774811 36.959061,381.336639 
	C38.155777,382.190643 39.352493,383.044678 40.541882,383.893433 
	C37.205997,387.367523 37.205997,387.367523 43.113876,391.170380 
	C39.595596,391.478638 37.218735,391.686890 34.407753,391.933197 
	C34.407753,386.688995 34.407753,381.996857 34.407753,376.667358 
	C36.612259,376.667358 38.707390,376.667358 41.148056,376.843658 
z"/>
<path fill="#808181" opacity="1.000000" stroke="none" 
	d="
M140.852997,386.308868 
	C141.303436,383.571899 141.378128,380.956757 142.502289,378.921112 
	C143.158554,377.732758 145.660034,376.697571 147.028152,376.993805 
	C148.629929,377.340576 149.902039,379.210052 151.211166,380.328430 
	C148.150375,380.836090 145.355728,380.523041 144.075485,381.767670 
	C143.121490,382.695190 144.126617,385.637726 144.259247,387.682892 
	C146.268723,387.523621 148.278198,387.364349 151.815948,387.083954 
	C149.966476,388.956909 148.819550,391.122314 147.220627,391.534546 
	C143.571304,392.475342 141.935028,389.734619 140.852997,386.308868 
z"/>
<path fill="#797B7B" opacity="1.000000" stroke="none" 
	d="
M330.395264,377.453613 
	C331.340942,381.845367 331.961090,386.494873 332.581238,391.144348 
	C331.860138,391.409637 331.139069,391.674927 330.417969,391.940216 
	C328.834259,389.240356 327.250519,386.540527 324.852722,382.452942 
	C324.852722,386.408539 324.852722,388.878754 324.852722,391.348938 
	C324.419342,391.355438 323.985931,391.361938 323.552551,391.368439 
	C323.552551,386.660309 323.552551,381.952179 323.552551,377.244049 
	C323.852386,377.099762 324.152222,376.955475 324.452057,376.811188 
	C325.828430,379.095612 327.204803,381.380066 329.112610,384.546478 
	C329.510864,381.702301 329.790314,379.706818 330.395264,377.453613 
z"/>
<path fill="#8B8236" opacity="1.000000" stroke="none" 
	d="
M166.982117,136.489548 
	C167.384109,137.262146 167.972397,138.493866 167.974808,139.726746 
	C168.027069,166.478119 168.017532,193.229630 167.996857,219.981094 
	C167.996231,220.790375 167.747971,221.599472 167.316071,222.700058 
	C166.976517,194.310715 166.936020,165.629974 166.982117,136.489548 
z"/>
<path fill="#868787" opacity="1.000000" stroke="none" 
	d="
M218.060150,387.858551 
	C217.093216,386.568756 215.683716,385.844482 215.029099,384.691620 
	C214.138184,383.122559 213.347061,381.199188 213.444366,379.480469 
	C213.500900,378.481262 215.393173,376.807800 216.434952,376.826141 
	C217.970169,376.853210 219.483582,378.118835 221.006287,378.856964 
	C220.823318,379.323151 220.640366,379.789368 220.457413,380.255554 
	C219.038681,380.255554 217.619949,380.255554 215.553940,380.255554 
	C217.555420,384.023163 225.622192,386.408051 218.467606,391.372925 
	C216.209885,392.939667 213.917053,391.365173 213.261002,388.233063 
	C215.060654,388.233063 216.507324,388.233063 218.060150,387.858551 
z"/>
<path fill="#797B7B" opacity="1.000000" stroke="none" 
	d="
M241.667633,386.582153 
	C241.917694,383.156372 242.057404,380.182037 242.197113,377.207733 
	C242.725830,377.232910 243.254562,377.258118 243.783279,377.283325 
	C243.783279,380.933990 244.177170,384.650269 243.585678,388.202454 
	C243.355286,389.586121 240.692734,391.730652 239.516708,391.510010 
	C237.869476,391.200989 235.644806,389.189148 235.326553,387.578003 
	C234.675919,384.284210 235.131531,380.771942 235.131531,377.349640 
	C235.776291,377.271973 236.421051,377.194275 237.065796,377.116608 
	C237.209442,379.772705 237.288879,382.434296 237.514282,385.083435 
	C237.753769,387.898468 238.450638,390.037109 241.667633,386.582153 
z"/>
<path fill="#8B8D8D" opacity="1.000000" stroke="none" 
	d="
M351.893799,388.568665 
	C351.554047,389.933105 351.215454,390.865265 350.876862,391.797424 
	C350.407867,391.756775 349.938843,391.716125 349.469818,391.675507 
	C349.327545,389.354858 349.423218,386.986237 348.967834,384.728760 
	C348.602234,382.916473 347.400818,381.285095 346.904968,379.481415 
	C346.670776,378.629669 347.148834,376.744843 347.426605,376.720459 
	C349.917419,376.501526 352.435516,376.592682 353.802032,376.592682 
	C353.056732,381.104126 352.475830,384.620270 351.893799,388.568665 
z"/>
<path fill="#828484" opacity="1.000000" stroke="none" 
	d="
M277.379150,378.153931 
	C280.225098,377.324799 283.033508,376.877258 285.113220,376.545837 
	C284.004639,382.172913 283.085510,386.838287 282.166382,391.503693 
	C281.763824,391.526123 281.361267,391.548584 280.958740,391.571045 
	C280.783417,389.345947 280.291656,387.089172 280.510284,384.903473 
	C280.805084,381.956360 279.974548,379.876678 277.379150,378.153931 
z"/>
<path fill="#8E9090" opacity="1.000000" stroke="none" 
	d="
M15.992193,382.175262 
	C15.992027,384.427399 15.992027,386.237885 15.992027,388.204529 
	C17.676449,388.795715 19.219088,389.337128 20.761724,389.878540 
	C20.742823,390.328979 20.723923,390.779419 20.705021,391.229858 
	C18.492178,391.477783 16.279335,391.725708 14.005262,391.980499 
	C14.005262,386.556122 14.005262,381.659698 14.005262,376.763275 
	C14.542699,376.758698 15.080135,376.754120 15.617572,376.749542 
	C15.742501,378.410919 15.867431,380.072266 15.992193,382.175262 
z"/>
<path fill="#8E9090" opacity="1.000000" stroke="none" 
	d="
M106.324387,377.360962 
	C106.566635,381.109222 106.566635,384.551727 106.566635,388.214081 
	C108.380356,388.740356 109.825638,389.159729 111.270920,389.579071 
	C111.311043,390.117310 111.351173,390.655548 111.391304,391.193787 
	C109.206917,391.448395 107.022530,391.703033 104.099075,392.043793 
	C104.099075,387.007812 104.045624,382.624054 104.185509,378.246460 
	C104.198830,377.829590 105.421120,377.451385 106.324387,377.360962 
z"/>
<path fill="#808181" opacity="1.000000" stroke="none" 
	d="
M265.593323,390.802368 
	C263.381226,391.403656 261.310944,391.640137 259.014404,391.902435 
	C259.014404,386.566437 259.014404,381.830414 259.014404,377.094421 
	C259.551147,377.067627 260.087860,377.040863 260.624603,377.014069 
	C260.827148,380.760590 261.029724,384.507141 261.224579,388.111725 
	C262.797333,388.922699 264.266235,389.680145 265.593323,390.802368 
z"/>
<path fill="#8B8236" opacity="1.000000" stroke="none" 
	d="
M166.945282,227.419556 
	C167.185593,228.526154 167.357727,230.046173 167.251923,231.790009 
	C166.941696,230.620224 166.909409,229.226593 166.945282,227.419556 
z"/>
<path fill="#8B8236" opacity="1.000000" stroke="none" 
	d="
M166.904236,236.356964 
	C167.165710,236.856262 167.363876,237.727417 167.314819,238.784424 
	C166.992050,238.223114 166.916489,237.475967 166.904236,236.356964 
z"/>
<path fill="#FCFBF7" opacity="1.000000" stroke="none" 
	d="
M130.072571,128.146713 
	C136.747070,142.043503 143.277176,155.611786 150.070984,169.728027 
	C135.633148,169.728027 121.955193,169.728027 107.183128,169.728027 
	C114.346672,154.872787 121.263840,140.528458 128.372314,125.787384 
	C129.143921,126.794533 129.536041,127.306374 130.072571,128.146713 
z"/>
<path fill="#FCFBF7" opacity="1.000000" stroke="none" 
	d="
M140.922913,175.958862 
	C144.358246,175.955368 147.308197,175.955368 150.344711,175.955368 
	C147.756775,188.493439 137.225586,198.586319 127.672035,198.043671 
	C118.767159,197.537857 108.468765,186.676483 107.173187,175.962357 
	C118.299225,175.962357 129.368378,175.962357 140.922913,175.958862 
z"/>
<path fill="#FBFBF7" opacity="1.000000" stroke="none" 
	d="
M248.943344,170.028366 
	C238.160812,170.031113 227.867584,170.031113 216.376083,170.031113 
	C223.617981,154.989365 230.508698,140.677002 237.937134,125.247780 
	C245.361847,140.620773 252.242203,154.866653 259.563538,170.025620 
	C255.577179,170.025620 252.504913,170.025620 248.943344,170.028366 
z"/>
<path fill="#FCFCF7" opacity="1.000000" stroke="none" 
	d="
M237.168701,198.031921 
	C224.697556,195.902084 220.099472,186.687042 215.640182,176.281616 
	C230.748077,176.281616 245.116989,176.281616 259.484650,176.281616 
	C257.654144,187.601334 247.897751,197.306396 237.168701,198.031921 
z"/>
<path fill="#EBEBEB" opacity="1.000000" stroke="none" 
	d="
M56.715759,330.123901 
	C54.987034,330.127197 53.696823,330.127197 51.772419,330.127197 
	C52.864368,324.833466 53.871643,319.950226 54.878918,315.066956 
	C55.158131,315.057556 55.437344,315.048126 55.716557,315.038727 
	C56.724159,319.487122 57.786579,323.924866 58.656464,328.400024 
	C58.745659,328.858917 57.682644,329.541748 56.715759,330.123901 
z"/>
<path fill="#EFEFEF" opacity="1.000000" stroke="none" 
	d="
M229.520569,322.524658 
	C230.855408,317.658325 232.061584,313.180603 233.520340,307.765198 
	C235.596695,315.240723 237.430420,321.842682 239.343079,328.728821 
	C235.330780,328.728821 231.866333,328.728821 228.017960,328.728821 
	C228.504089,326.671204 228.947998,324.792267 229.520569,322.524658 
z"/>
<path fill="#F3F4F4" opacity="1.000000" stroke="none" 
	d="
M167.122040,385.567749 
	C167.076065,382.608307 167.106476,379.541931 170.599487,380.166168 
	C171.697830,380.362488 172.537903,383.719696 172.859222,385.731934 
	C172.994034,386.576080 171.145630,388.632874 170.765778,388.501312 
	C169.435974,388.040802 168.353165,386.867065 167.122040,385.567749 
z"/>
</svg>